<svg id="Capa_1" enable-background="new 0 0 512 512" height="512" viewBox="0 0 512 512" width="512" xmlns="http://www.w3.org/2000/svg"><path d="m437.019 74.981c-48.351-48.352-112.639-74.981-181.019-74.981s-132.666 26.629-181.019 74.981c-48.352 48.352-74.98 112.639-74.98 181.019 0 68.379 26.629 132.666 74.981 181.019 48.352 48.352 112.639 74.981 181.018 74.981s132.667-26.629 181.019-74.981c48.352-48.353 74.98-112.639 74.98-181.019s-26.628-132.667-74.98-181.019zm-181.019 325.619c-79.732 0-144.599-64.865-144.599-144.6 0-79.732 64.866-144.6 144.599-144.6 79.731 0 144.598 64.867 144.598 144.6 0 79.734-64.866 144.6-144.598 144.6z" fill="#1d4659"/><path d="m437.019 74.981c-48.351-48.352-112.639-74.981-181.019-74.981v111.4c79.731 0 144.598 64.867 144.598 144.6 0 79.734-64.866 144.6-144.598 144.6v111.4c68.38 0 132.667-26.629 181.019-74.981 48.352-48.353 74.98-112.639 74.98-181.019s-26.628-132.667-74.98-181.019z" fill="#0e232c"/><path d="m256 96.399c-88.003 0-159.599 71.597-159.599 159.601s71.597 159.6 159.599 159.6 159.599-71.596 159.599-159.6-71.596-159.601-159.599-159.601zm-129.598 159.601c0-18.24 3.796-35.609 10.626-51.369l58.314 33.667c-1.643 5.621-2.541 11.558-2.541 17.702s.897 12.08 2.541 17.701l-58.314 33.666c-6.83-15.758-10.626-33.127-10.626-51.367zm190.258-17.702 58.313-33.667c6.83 15.76 10.626 33.129 10.626 51.369s-3.796 35.609-10.626 51.367l-58.313-33.666c1.643-5.621 2.541-11.557 2.541-17.701s-.899-12.081-2.541-17.702zm43.278-59.627-58.312 33.665c-8.192-8.557-18.753-14.82-30.626-17.723v-67.341c36.321 4.207 68.114 23.48 88.938 51.399zm-118.937-51.399v67.341c-11.873 2.902-22.434 9.166-30.626 17.723l-58.311-33.665c20.823-27.919 52.616-47.192 88.937-51.399zm-88.939 206.056 58.311-33.665c8.193 8.558 18.754 14.821 30.627 17.723v67.341c-36.32-4.205-68.113-23.479-88.938-51.399zm118.938 51.399v-67.341c11.873-2.901 22.434-9.165 30.627-17.723l58.312 33.665c-20.825 27.92-52.618 47.194-88.939 51.399z" fill="#c5e1e6"/><path d="m233.221 451.45c-7.409 3.705-10.412 12.715-6.707 20.125l20.121 40.238c3.113.111 6.233.186 9.365.186 7.971 0 15.883-.377 23.724-1.093l-26.378-52.75c-3.705-7.409-12.715-10.412-20.125-6.706z" fill="#265c76"/><path d="m272.08 62.136c2.254 0 4.545-.51 6.698-1.587 7.409-3.706 10.411-12.717 6.706-20.126l-20.124-40.237c-3.111-.111-6.23-.186-9.36-.186-7.973 0-15.888.377-23.73 1.094l26.382 52.749c2.629 5.256 7.926 8.293 13.428 8.293z" fill="#265c76"/><path d="m333.996 436.653c-4.564 6.914-2.66 16.219 4.253 20.782l37.672 24.871c9.703-5.158 19.091-10.963 28.115-17.386l-49.258-32.52c-6.914-4.566-16.22-2.66-20.782 4.253z" fill="#1d4659"/><path d="m165.465 82.084c4.871 0 9.648-2.369 12.532-6.738 4.563-6.914 2.659-16.219-4.255-20.782l-37.67-24.866c-9.703 5.158-19.091 10.964-28.116 17.388l49.259 32.516c2.545 1.678 5.413 2.482 8.25 2.482z" fill="#265c76"/><path d="m413.87 373.451c-.496 8.27 5.805 15.375 14.074 15.871l45.027 2.701c5.901-9.373 11.156-19.097 15.762-29.107l-58.992-3.539c-8.293-.508-15.376 5.807-15.871 14.074z" fill="#1d4659"/><path d="m83.159 152.652c7.874 0 14.482-6.14 14.959-14.102.496-8.27-5.806-15.375-14.075-15.87l-45.017-2.697c-5.902 9.373-11.157 19.097-15.763 29.108l58.984 3.535c.306.018.61.026.912.026z" fill="#265c76"/><path d="m510.907 232.275-52.758 26.381c-7.409 3.705-10.412 12.715-6.707 20.125 2.628 5.256 7.926 8.294 13.428 8.294 2.255 0 4.543-.51 6.697-1.587l40.246-20.125c.111-3.113.186-6.232.186-9.363 0-7.971-.376-15.884-1.092-23.725z" fill="#1d4659"/><path d="m60.543 233.225c-3.705-7.408-12.712-10.411-20.126-6.706l-40.229 20.12c-.111 3.112-.187 6.23-.187 9.361 0 7.973.377 15.887 1.093 23.728l52.743-26.378c7.409-3.705 10.411-12.716 6.706-20.125z" fill="#265c76"/><path d="m436.645 178.007c2.545 1.681 5.414 2.484 8.251 2.484 4.87 0 9.647-2.369 12.531-6.737l24.876-37.679c-5.158-9.704-10.963-19.091-17.387-28.115l-32.524 49.265c-4.564 6.914-2.66 16.218 4.253 20.782z" fill="#1d4659"/><path d="m75.338 334.005c-6.915-4.564-16.219-2.66-20.782 4.255l-24.86 37.662c5.157 9.703 10.963 19.092 17.387 28.117l32.511-49.252c4.563-6.914 2.658-16.219-4.256-20.782z" fill="#265c76"/><path d="m373.444 98.133c.306.019.61.027.912.027 7.874 0 14.481-6.139 14.959-14.102l2.701-45.035c-9.373-5.9-19.096-11.155-29.107-15.761l-3.539 58.999c-.496 8.27 5.804 15.376 14.074 15.872z" fill="#1d4659"/><path d="m138.542 413.885c-8.274-.511-15.375 5.808-15.87 14.075l-2.697 45.011c9.374 5.902 19.098 11.157 29.109 15.763l3.534-58.978c.496-8.271-5.806-15.376-14.076-15.871z" fill="#265c76"/><path d="m256 96.399v319.2c88.003 0 159.599-71.596 159.599-159.6s-71.596-159.6-159.599-159.6zm15 30.873c36.32 4.206 68.113 23.479 88.938 51.398l-58.312 33.665c-8.192-8.557-18.753-14.82-30.626-17.723zm0 257.455v-67.341c11.873-2.901 22.434-9.165 30.627-17.723l58.312 33.665c-20.825 27.92-52.618 47.194-88.939 51.399zm45.66-111.026c1.643-5.621 2.541-11.557 2.541-17.701s-.898-12.081-2.541-17.702l58.313-33.667c6.83 15.76 10.626 33.129 10.626 51.369s-3.796 35.609-10.626 51.367z" fill="#8db9c4"/><g fill="#1d4659"><path d="m279.724 510.907-23.724-47.442v48.535c7.971 0 15.883-.377 23.724-1.093z"/><path d="m272.08 62.136c2.254 0 4.545-.51 6.698-1.587 7.409-3.706 10.411-12.717 6.706-20.126l-20.124-40.237c-3.111-.111-6.23-.186-9.36-.186v48.541l2.651 5.302c2.63 5.256 7.927 8.293 13.429 8.293z"/></g></svg>